<svg width="28" height="28" viewBox="0 0 28 28" fill="none" xmlns="http://www.w3.org/2000/svg">
<path d="M21 7.875H7V9.625H21V7.875Z" fill="white"/>
<path d="M16.3333 12.541H7V14.291H16.3333V12.541Z" fill="white"/>
<path d="M11.6667 25.4923L8.86667 21.2923H4.08333C3.69656 21.2923 3.32563 21.1387 3.05214 20.8652C2.77865 20.5917 2.625 20.2208 2.625 19.834V4.66732C2.625 4.28054 2.77865 3.90961 3.05214 3.63612C3.32563 3.36263 3.69656 3.20898 4.08333 3.20898H23.9167C24.3034 3.20898 24.6744 3.36263 24.9479 3.63612C25.2214 3.90961 25.375 4.28054 25.375 4.66732V19.834C25.375 20.2208 25.2214 20.5917 24.9479 20.8652C24.6744 21.1387 24.3034 21.2923 23.9167 21.2923H14.4667L11.6667 25.4923ZM4.375 19.5423H9.8L11.6667 22.3423L13.5333 19.5423H23.625V4.95898H4.375V19.5423Z" fill="white"/>
</svg>
