<svg width="28" height="28" viewBox="0 0 28 28" fill="none" xmlns="http://www.w3.org/2000/svg">
<path d="M15.3768 24.7334C13.1647 24.707 11.005 24.0558 9.14685 22.8551L4.66685 23.3917L5.20351 18.8534C2.43851 14.4901 2.75351 9.21674 6.02018 6.02007C9.91684 2.11174 16.6952 2.52007 21.1868 6.98841C25.6785 11.4567 26.0635 18.2001 22.1552 22.1551C21.2545 23.0154 20.1908 23.6867 19.0267 24.1295C17.8625 24.5723 16.6216 24.7777 15.3768 24.7334ZM9.57851 21.0001L9.84684 21.1867C13.4985 23.6367 18.1185 23.4617 20.8018 20.7667C24.0218 17.5934 23.5902 11.9117 19.8335 8.16674C16.0768 4.42174 10.4068 3.97841 7.19851 7.19841C4.45685 9.92841 4.29351 14.4317 6.77851 18.1534L6.96518 18.4217L6.60351 21.3967L9.57851 21.0001Z" fill="white"/>
</svg>
