<svg width="28" height="28" viewBox="0 0 28 28" fill="none" xmlns="http://www.w3.org/2000/svg">
<path d="M15.167 24.5007H18.667C19.4405 24.5007 20.1824 24.1934 20.7294 23.6464C21.2764 23.0994 21.5837 22.3575 21.5837 21.584V19.834" stroke="white" stroke-width="1.5" stroke-miterlimit="10"/>
<path d="M14 26.25C14.9665 26.25 15.75 25.4665 15.75 24.5C15.75 23.5335 14.9665 22.75 14 22.75C13.0335 22.75 12.25 23.5335 12.25 24.5C12.25 25.4665 13.0335 26.25 14 26.25Z" fill="white"/>
<path d="M21.5837 16.3333V11.6667C21.5837 7 18.3287 3.5 14.0003 3.5C9.67199 3.5 6.41699 7 6.41699 11.6667V16.3333" stroke="white" stroke-width="1.5" stroke-miterlimit="10"/>
<path d="M2.33301 16.3328C2.37264 17.6089 2.91705 18.817 3.8467 19.692C4.77636 20.5669 6.01525 21.0372 7.29134 20.9995V11.6662C6.01525 11.6285 4.77636 12.0987 3.8467 12.9737C2.91705 13.8487 2.37264 15.0568 2.33301 16.3328Z" fill="white"/>
<path d="M25.6663 16.3328C25.6267 15.0568 25.0823 13.8487 24.1526 12.9737C23.223 12.0987 21.9841 11.6285 20.708 11.6662V20.9995C21.9841 21.0372 23.223 20.5669 24.1526 19.692C25.0823 18.817 25.6267 17.6089 25.6663 16.3328Z" fill="white"/>
</svg>
