<svg width="32" height="32" viewBox="0 0 32 32" fill="none" xmlns="http://www.w3.org/2000/svg">
<g style="mix-blend-mode:multiply" opacity="0.3">
<path d="M15.9974 29.3327C23.3612 29.3327 29.3307 23.3631 29.3307 15.9993C29.3307 8.63555 23.3612 2.66602 15.9974 2.66602C8.6336 2.66602 2.66406 8.63555 2.66406 15.9993C2.66406 23.3631 8.6336 29.3327 15.9974 29.3327Z" fill="#65184E"/>
</g>
<path d="M15.9974 4.66602C18.2389 4.66602 20.4301 5.3307 22.2939 6.57603C24.1576 7.82135 25.6102 9.59137 26.468 11.6623C27.3258 13.7332 27.5503 16.0119 27.113 18.2104C26.6757 20.4088 25.5963 22.4282 24.0113 24.0132C22.4263 25.5982 20.4069 26.6776 18.2084 27.1149C16.01 27.5522 13.7312 27.3278 11.6603 26.47C9.58943 25.6122 7.8194 24.1596 6.57408 22.2958C5.32876 20.4321 4.66407 18.2409 4.66407 15.9993C4.6676 12.9946 5.86277 10.114 7.98742 7.98937C10.1121 5.86472 12.9927 4.66954 15.9974 4.66602ZM15.9974 2.66602C13.3603 2.66602 10.7825 3.448 8.5898 4.91309C6.39714 6.37817 4.68818 8.46055 3.67901 10.8969C2.66984 13.3333 2.4058 16.0141 2.92026 18.6006C3.43473 21.187 4.70461 23.5627 6.56931 25.4274C8.43401 27.2921 10.8098 28.562 13.3962 29.0765C15.9826 29.591 18.6635 29.3269 21.0998 28.3177C23.5362 27.3086 25.6186 25.5996 27.0837 23.407C28.5487 21.2143 29.3307 18.6364 29.3307 15.9993C29.3307 14.2484 28.9859 12.5146 28.3158 10.8969C27.6457 9.27923 26.6636 7.80937 25.4255 6.57126C24.1874 5.33314 22.7175 4.35102 21.0998 3.68096C19.4822 3.01089 17.7484 2.66602 15.9974 2.66602Z" fill="#65184E"/>
<path d="M17 13.332H15V23.9987H17V13.332Z" fill="#65184E"/>
<path d="M17 8H15V10.6667H17V8Z" fill="#65184E"/>
</svg>
