<svg width="60" height="60" viewBox="0 0 60 60" fill="none" xmlns="http://www.w3.org/2000/svg">
<path d="M0 30C0 13.4315 13.4315 0 30 0V0C46.5685 0 60 13.4315 60 30V30C60 46.5685 46.5685 60 30 60V60C13.4315 60 0 46.5685 0 30V30Z" fill="#000A12"/>
<path d="M31.1665 40.4997H34.6665C35.4401 40.4997 36.1819 40.1924 36.7289 39.6454C37.2759 39.0984 37.5832 38.3566 37.5832 37.583V35.833" stroke="white" stroke-width="1.5" stroke-miterlimit="10"/>
<path d="M30 42.25C30.9665 42.25 31.75 41.4665 31.75 40.5C31.75 39.5335 30.9665 38.75 30 38.75C29.0335 38.75 28.25 39.5335 28.25 40.5C28.25 41.4665 29.0335 42.25 30 42.25Z" fill="white"/>
<path d="M37.5832 32.3333V27.6667C37.5832 23 34.3282 19.5 29.9998 19.5C25.6715 19.5 22.4165 23 22.4165 27.6667V32.3333" stroke="white" stroke-width="1.5" stroke-miterlimit="10"/>
<path d="M18.3335 32.3338C18.3731 33.6098 18.9175 34.818 19.8472 35.693C20.7768 36.5679 22.0157 37.0382 23.2918 37.0005V27.6671C22.0157 27.6294 20.7768 28.0997 19.8472 28.9747C18.9175 29.8496 18.3731 31.0578 18.3335 32.3338Z" fill="white"/>
<path d="M41.6668 32.3338C41.6272 31.0578 41.0828 29.8496 40.1531 28.9747C39.2235 28.0997 37.9846 27.6294 36.7085 27.6671V37.0005C37.9846 37.0382 39.2235 36.5679 40.1531 35.693C41.0828 34.818 41.6272 33.6098 41.6668 32.3338Z" fill="white"/>
</svg>
