<svg width="28" height="28" viewBox="0 0 28 28" fill="none" xmlns="http://www.w3.org/2000/svg">
<path d="M7.80502 23.7176L7.18668 23.0993C6.28946 22.1412 5.56336 21.0363 5.04002 19.8326C4.49324 18.675 4.32742 17.374 4.56639 16.1163C4.80535 14.8586 5.43679 13.709 6.37002 12.8326L12.9617 6.1826C16.7184 2.42593 21.35 5.08593 23.3333 6.99927L23.9517 7.6176L17.7684 13.8009L17.15 13.1826C17.0208 13.0361 16.8619 12.9188 16.6839 12.8384C16.5059 12.7581 16.3128 12.7165 16.1175 12.7165C15.9222 12.7165 15.7291 12.7581 15.5511 12.8384C15.3731 12.9188 15.2142 13.0361 15.085 13.1826L13.44 14.8276C13.2933 14.9579 13.1758 15.1177 13.0953 15.2967C13.0149 15.4757 12.9733 15.6697 12.9733 15.8659C12.9733 16.0622 13.0149 16.2562 13.0953 16.4351C13.1758 16.6141 13.2933 16.774 13.44 16.9043L14 17.4993L13.405 18.1059L7.80502 23.7176ZM17.325 6.0426C16.7376 6.04725 16.1573 6.17174 15.6197 6.40846C15.0821 6.64517 14.5984 6.98913 14.1984 7.41927L7.60668 13.9993C4.92335 16.6826 6.80168 19.8326 7.85168 21.1743L11.6667 17.4993C11.292 16.898 11.1405 16.1843 11.2386 15.4827C11.3367 14.7811 11.6782 14.1363 12.2034 13.6609L13.8484 12.0159C14.3361 11.5069 14.9806 11.1761 15.6786 11.0767C16.3766 10.9773 17.0878 11.1149 17.6984 11.4676L21.4317 7.73427C20.2827 6.73954 18.8412 6.14575 17.325 6.0426Z" fill="white"/>
</svg>
